<?xml version="1.0" standalone="no"?>
<!DOCTYPE svg PUBLIC "-//W3C//DTD SVG 20010904//EN"
 "http://www.w3.org/TR/2001/REC-SVG-20010904/DTD/svg10.dtd">
<svg version="1.0" xmlns="http://www.w3.org/2000/svg"
 width="2073.000000pt" height="1000.000000pt" viewBox="0 0 2073.000000 1000.000000"
 preserveAspectRatio="xMidYMid meet">

<g transform="translate(0.000000,1000.000000) scale(0.100000,-0.100000)"
fill="#000000" stroke="none">
<path d="M10740 8651 c-104 -32 -189 -130 -294 -338 -71 -143 -98 -246 -100
-380 -1 -111 -1 -112 -28 -128 -86 -50 -229 -71 -287 -41 -19 10 -38 38 -65
98 -21 46 -49 109 -64 141 -35 77 -80 117 -131 117 -68 0 -244 -128 -501 -365
-95 -87 -210 -175 -230 -175 -11 0 -18 49 -25 185 -4 71 -13 133 -22 152 -19
42 -63 58 -108 39 -38 -16 -50 -47 -59 -149 -8 -106 -77 -253 -188 -400 -54
-72 -83 -93 -146 -103 -50 -8 -49 -14 -57 196 -5 118 -11 165 -25 197 -20 46
-68 78 -105 71 -19 -4 -25 1 -34 32 -16 53 -46 87 -104 117 -43 22 -66 27
-127 27 -66 1 -84 -4 -154 -37 -97 -46 -144 -82 -202 -159 -84 -108 -134 -224
-164 -381 l-12 -58 -54 106 c-31 58 -63 129 -73 158 -29 85 -57 131 -101 171
-53 47 -96 66 -155 66 -98 0 -149 -50 -252 -245 l-58 -110 -3 105 c-1 58 -6
271 -10 473 l-7 369 -28 24 c-36 30 -71 31 -101 1 -21 -21 -25 -37 -30 -118
-13 -211 -27 -1344 -17 -1370 24 -64 112 -90 163 -49 16 12 40 56 62 112 47
117 277 571 292 575 6 2 28 -38 49 -89 20 -51 58 -131 85 -178 49 -86 69 -132
89 -207 19 -70 99 -123 187 -123 17 0 46 -7 63 -16 74 -37 228 -1 357 81 64
41 180 150 231 216 l38 50 15 -48 c49 -156 250 -189 394 -63 47 42 83 94 137
199 l42 82 21 -37 c32 -57 77 -79 156 -77 128 3 201 48 437 272 176 166 293
271 303 271 3 0 21 -40 39 -90 69 -185 144 -248 309 -257 133 -8 235 25 372
117 39 26 70 39 107 43 71 8 184 57 311 134 141 86 176 103 208 103 35 0 79
-49 118 -130 31 -65 31 -65 30 -230 -1 -144 -4 -178 -28 -265 -47 -181 -164
-383 -268 -466 -99 -78 -188 -111 -358 -134 -91 -12 -108 -17 -127 -40 -31
-35 -29 -71 5 -105 35 -35 114 -46 266 -37 163 9 284 53 400 143 146 115 282
360 333 603 32 151 37 390 10 491 -29 107 -79 200 -146 273 -127 135 -250 151
-411 51 -40 -24 -73 -44 -75 -44 -2 0 10 33 25 73 62 158 79 384 34 444 -41
55 -102 80 -154 64z m-25 -386 c-18 -81 -61 -163 -116 -225 l-40 -45 7 35 c11
61 53 162 107 259 43 78 53 90 55 69 2 -14 -4 -56 -13 -93z m-2633 -560 c9
-19 9 -47 0 -109 -20 -154 -62 -236 -175 -347 -64 -62 -144 -109 -185 -109
-24 0 -25 1 -18 68 23 229 126 425 257 491 77 38 105 40 121 6z"/>
<path d="M2900 8165 c-20 -21 -25 -41 -32 -132 -15 -173 -12 -540 5 -713 9
-85 23 -222 32 -305 8 -82 21 -229 29 -325 18 -233 41 -280 140 -280 72 0 102
46 181 279 58 169 121 323 192 465 63 128 135 256 144 256 14 0 20 -49 29
-250 6 -113 15 -239 20 -280 6 -41 17 -136 25 -211 15 -147 33 -200 80 -237
99 -78 204 -35 275 113 41 86 48 129 25 155 -30 33 -66 25 -115 -25 -24 -25
-48 -45 -52 -45 -4 0 -8 20 -8 44 0 25 -9 105 -19 178 -11 73 -23 192 -26 263
-12 262 -40 404 -91 465 -77 91 -189 78 -292 -35 -53 -57 -198 -333 -283 -534
l-44 -104 -17 154 c-46 413 -72 717 -61 706 4 -5 10 -50 13 -100 4 -78 8 -92
23 -95 35 -7 47 16 47 92 0 39 -5 89 -11 111 -5 22 -14 82 -19 133 -11 103
-56 235 -91 265 -30 25 -71 21 -99 -8z"/>
<path d="M5403 8160 c-12 -5 -30 -21 -40 -36 -16 -25 -19 -66 -25 -413 -4
-212 -9 -398 -12 -412 -9 -45 -104 -258 -157 -351 -52 -90 -123 -188 -137
-188 -11 0 -38 88 -52 170 -7 36 -15 164 -19 286 -7 242 -7 245 -70 271 -43
18 -81 9 -116 -27 -24 -25 -28 -39 -35 -127 -13 -152 -64 -360 -113 -458 -32
-64 -64 -101 -111 -126 -56 -29 -66 -22 -100 74 -48 133 -58 187 -57 297 1 88
-2 110 -19 138 -15 25 -26 32 -51 32 -78 0 -104 -60 -104 -235 1 -206 71 -415
161 -478 116 -81 296 -24 401 127 21 31 41 55 44 56 4 0 10 -12 14 -27 12 -50
68 -125 114 -154 53 -34 114 -38 168 -12 71 33 163 184 234 380 l33 92 18 -27
c20 -31 73 -62 106 -62 72 0 143 61 326 285 155 188 188 223 222 231 35 9 44
-7 44 -81 0 -137 -40 -264 -112 -358 -38 -50 -120 -137 -129 -137 -3 0 -21 32
-38 70 -38 82 -67 106 -108 93 -47 -16 -55 -47 -38 -147 41 -232 167 -307 319
-189 95 74 225 260 265 378 46 139 53 358 14 446 -25 57 -90 115 -145 129
-132 36 -265 -45 -456 -277 -42 -51 -80 -93 -84 -93 -4 0 -9 64 -9 143 -1 78
-4 260 -8 404 l-6 263 -25 25 c-28 28 -74 39 -107 25z"/>
<path d="M1943 7949 c-65 -12 -115 -43 -179 -112 -118 -125 -207 -287 -244
-439 -47 -198 -15 -281 196 -508 122 -130 275 -331 318 -415 22 -45 27 -63 21
-92 -17 -94 -101 -196 -171 -209 -50 -9 -183 11 -305 46 -113 32 -139 29 -160
-22 -17 -43 10 -74 111 -125 144 -74 230 -98 345 -98 86 0 106 3 144 23 165
89 264 329 202 492 -38 100 -202 323 -390 531 -107 119 -151 188 -151 239 0
100 76 283 172 412 98 132 138 143 269 76 110 -58 123 -76 128 -189 2 -76 6
-91 22 -100 27 -14 58 -2 69 27 5 13 12 52 16 87 13 124 -36 215 -158 298 -99
67 -177 91 -255 78z"/>
<path d="M18857 5870 c-139 -35 -206 -124 -277 -365 -18 -60 -34 -111 -35
-113 -1 -1 -33 16 -71 38 -123 72 -278 107 -357 81 -73 -25 -106 -96 -72 -160
17 -34 112 -121 159 -146 39 -21 58 -16 82 21 17 25 17 28 1 55 -9 16 -13 29
-9 29 15 0 98 -53 159 -102 65 -51 65 -52 59 -92 -4 -23 -9 -116 -13 -208 -9
-245 19 -388 89 -455 79 -76 171 -69 264 19 70 66 94 128 94 241 0 45 -7 111
-16 147 -16 68 -96 247 -136 303 -26 36 -26 37 8 170 28 112 76 248 100 284
23 35 93 63 176 70 82 7 118 31 118 80 0 44 -26 71 -82 88 -65 19 -192 27
-241 15z"/>
<path d="M16670 5438 c-27 -13 -93 -69 -166 -142 -104 -105 -158 -166 -262
-301 l-23 -30 5 70 c4 39 11 108 16 155 13 112 5 167 -31 202 -51 52 -116 27
-139 -52 -13 -45 -30 -331 -30 -506 0 -131 -2 -146 -30 -222 -40 -109 -40
-172 -1 -233 25 -41 28 -55 33 -160 7 -162 37 -216 108 -194 35 11 51 49 62
150 l11 97 31 -6 c17 -4 175 -9 351 -12 308 -6 321 -6 344 13 31 25 33 76 3
105 -17 18 -56 26 -269 54 -277 36 -441 62 -454 70 -17 10 -9 90 15 139 31 66
164 266 257 385 83 107 242 276 246 263 2 -5 -5 -38 -16 -74 -18 -57 -19 -66
-5 -86 15 -23 30 -28 58 -17 21 8 77 147 83 210 4 33 1 65 -7 84 -25 61 -109
77 -190 38z"/>
<path d="M17203 5219 c-149 -74 -283 -402 -283 -694 0 -122 35 -173 134 -195
67 -15 163 3 222 43 47 31 122 114 164 181 l23 38 22 -59 c12 -33 31 -74 43
-90 28 -39 114 -83 163 -83 57 0 158 36 221 78 118 79 145 119 114 167 -26 40
-57 41 -143 5 -49 -20 -97 -33 -127 -34 l-50 -1 -19 60 c-15 46 -21 104 -26
250 -4 122 -11 198 -19 212 -16 29 -66 55 -99 51 -18 -2 -36 7 -62 32 -21 20
-56 41 -78 48 -64 19 -152 15 -200 -9z m155 -221 c6 -24 14 -69 17 -100 7 -54
5 -61 -30 -125 -83 -149 -170 -253 -213 -253 -26 0 -26 -11 3 151 35 197 121
369 185 369 24 0 29 -5 38 -42z"/>
<path d="M14090 5067 c-14 -7 -31 -25 -38 -40 -11 -23 -11 -35 3 -76 30 -90
98 -133 180 -112 24 6 57 11 73 11 51 0 82 61 47 90 -8 7 -43 26 -77 42 -35
16 -74 42 -88 58 -30 35 -66 45 -100 27z"/>
<path d="M15196 4939 c-100 -24 -145 -86 -153 -208 l-6 -78 -49 33 c-84 57
-153 67 -225 34 -74 -33 -92 -108 -43 -187 23 -38 73 -67 100 -58 29 9 36 51
15 75 -22 25 -12 25 27 3 41 -25 115 -124 153 -208 26 -55 34 -88 38 -158 9
-126 42 -241 79 -272 54 -46 126 -27 154 41 11 26 12 53 4 138 -6 58 -15 117
-20 131 -11 30 -13 285 -4 423 l7 92 36 10 c20 6 60 13 89 16 68 9 102 35 102
78 0 20 -8 40 -19 50 -40 36 -212 63 -285 45z"/>
<path d="M12792 4836 c-23 -30 -29 -147 -38 -796 -6 -381 -5 -445 10 -514 9
-43 16 -100 16 -127 0 -94 43 -151 115 -151 20 0 45 7 58 15 12 8 61 84 109
169 149 265 255 415 397 561 30 31 58 57 62 57 21 0 76 -183 94 -312 13 -103
72 -306 98 -336 33 -41 95 -29 127 23 30 48 35 117 15 200 -9 39 -23 114 -31
168 -15 109 -71 287 -111 357 -103 179 -221 175 -410 -17 -112 -114 -190 -210
-280 -345 l-68 -103 -7 120 c-5 66 -10 284 -12 485 -5 401 -14 520 -41 550
-26 29 -79 26 -103 -4z"/>
<path d="M14177 4469 c-41 -24 -47 -67 -53 -362 -7 -309 -1 -363 52 -454 48
-83 140 -118 184 -71 24 26 25 49 4 90 -24 47 -42 165 -50 335 l-7 153 27 21
c33 26 33 42 1 67 -20 16 -25 29 -25 63 -1 74 -17 132 -40 151 -25 20 -65 23
-93 7z"/>
<path d="M11243 4367 c-12 -7 -70 -79 -129 -162 -59 -82 -157 -215 -219 -295
-62 -80 -129 -171 -150 -203 -21 -31 -40 -55 -42 -53 -3 2 1 108 7 235 11 240
10 259 -29 288 -25 19 -68 15 -96 -10 -24 -20 -29 -37 -50 -175 -39 -245 -45
-354 -55 -961 -9 -522 -8 -576 6 -608 40 -83 158 -83 198 1 13 28 16 72 16
261 l0 227 24 -6 c91 -23 628 -36 679 -17 53 20 56 110 5 131 -13 5 -109 18
-215 30 -228 24 -409 54 -459 75 -36 15 -36 16 -32 64 9 91 145 336 314 565
52 71 102 142 111 157 14 23 22 27 44 22 23 -4 32 1 58 38 35 48 99 235 108
315 5 47 3 52 -22 72 -31 25 -41 26 -72 9z"/>
<path d="M11903 4108 c-35 -38 -92 -164 -118 -256 -13 -48 -35 -118 -50 -157
-51 -133 -72 -318 -40 -345 9 -7 29 -10 48 -7 31 5 35 2 45 -27 7 -18 27 -47
44 -66 84 -85 232 -111 334 -58 104 54 192 190 250 383 21 72 27 112 28 200 1
101 -1 114 -27 167 -61 125 -222 204 -336 165 -42 -15 -46 -15 -69 4 -34 26
-83 25 -109 -3z m310 -236 c25 -24 27 -32 27 -102 0 -156 -84 -369 -159 -399
-15 -7 -40 -9 -55 -5 -48 12 -56 36 -56 172 0 120 1 125 25 144 21 16 25 28
25 73 0 52 1 54 57 105 63 58 85 60 136 12z"/>
</g>
</svg>
